<?xml version="1.0" ?><!DOCTYPE svg  PUBLIC '-//W3C//DTD SVG 1.1//EN'  'http://www.w3.org/Graphics/SVG/1.1/DTD/svg11.dtd'><svg height="100%" style="fill-rule:evenodd;clip-rule:evenodd;stroke-linejoin:round;stroke-miterlimit:2;" version="1.1" viewBox="0 0 32 32" width="100%" xml:space="preserve" xmlns="http://www.w3.org/2000/svg" xmlns:serif="http://www.serif.com/" xmlns:xlink="http://www.w3.org/1999/xlink"><path d="M12.477,23.005l0,0.003l-0.003,-0.022c-0.009,-0.048 -0.034,-0.009 -0.04,0.022l-3.923,-0.006c0.001,-0.038 -0.021,-0.074 -0.071,0l-0,0c0.034,-0.05 2.621,-3.843 3.038,-7.633c0.099,-0.904 0.262,-1.374 0.452,-1.564c0.126,-0.127 0.264,-0.13 0.403,-0.053c0.146,0.08 0.294,0.248 0.429,0.449c0.204,0.303 0.382,0.683 0.493,0.963c0.063,0.16 0.103,0.287 0.114,0.349c0.003,0.015 0.003,0.026 0.002,0.033c-1.044,5.585 -0.894,7.459 -0.894,7.459Z" style="fill:#fbeeac;"/><path d="M18.977,12.488c-0.13,0.001 -1.007,0.004 -1.918,0.005c-0.216,0 -0.408,0.14 -0.475,0.346c-0.067,0.206 0.007,0.432 0.182,0.559c0.213,0.154 0.419,0.33 0.617,0.527c0.79,0.79 1.246,1.736 1.304,2.547c0.038,0.541 -0.101,1.022 -0.436,1.357l-3.28,-3.279c-0.03,-0.08 -0.437,-1.136 -0.586,-1.688c-0.059,-0.218 -0.257,-0.369 -0.483,-0.369c-0.717,-0.001 -1.266,-0.003 -1.423,-0.004c-0.146,-0.002 -0.285,0.06 -0.381,0.168c-0.096,0.109 -0.14,0.255 -0.121,0.399c0,-0 0,-0 0,0c-0.957,0.958 -4.207,4.189 -4.783,4.762c-0.328,-0.335 -0.463,-0.811 -0.425,-1.346c0.057,-0.811 0.514,-1.757 1.304,-2.547c0.201,-0.201 0.412,-0.38 0.628,-0.536c0.176,-0.127 0.25,-0.353 0.183,-0.56c-0.067,-0.206 -0.259,-0.346 -0.476,-0.346c-2.083,0.001 -4.445,-0.001 -4.903,-0.004l-0.032,-0.001c0.001,-0.458 0.297,-0.882 0.797,-1.226c0.751,-0.517 1.964,-0.852 3.331,-0.852c0.345,-0 0.68,0.021 1.001,0.062c0.217,0.028 0.427,-0.089 0.518,-0.289c0.091,-0.199 0.041,-0.435 -0.123,-0.58l-1.965,-1.75l0.002,-0.002l0.002,-0.004c0.01,0.001 0.011,-0.01 0.008,-0.023c0.003,-0.014 0.001,-0.025 -0.009,-0.023l-0.003,-0.006c0.249,-0.215 0.633,-0.301 1.084,-0.286c1.1,0.038 2.597,0.682 3.504,1.548c0.54,0.516 0.92,1.104 1.123,1.672c0.05,0.142 0.163,0.253 0.305,0.303c0.143,0.05 0.3,0.033 0.428,-0.046c0.587,-0.363 1.379,-0.587 2.251,-0.587c1.076,0 2.031,0.339 2.623,0.861c0.393,0.347 0.626,0.775 0.627,1.238Zm-4.006,2.062c0.022,0.021 0.019,0.011 0.012,-0.001c-0.007,-0.012 -0.019,-0.027 -0.017,-0.015l0.005,0.016Z" style="fill:#f4d160;"/><path d="M14,24.998c-0,0 -0,0 -0,0Z"/><path d="M22.546,19.22l0.571,-0.153c0.217,-0.02 0.462,-0.004 0.744,0.056c2.232,0.472 4.591,1.933 4.639,1.963c-0.143,-0.085 -0,0.17 -0,-0l-0,3.911c-0,-0.276 -0.276,-0 -0,-0l-14.46,0.001l-0.001,-0.003l-0.001,-0.002c0.01,-0.006 0.003,-0.015 -0.01,-0.023c-0.007,-0.012 -0.016,-0.02 -0.022,-0.01l-0.002,-0.001l-0.004,-0l0,-1.969c0,-0 0.224,-0.574 0.673,-1.01c0.3,-0.292 0.699,-0.522 1.198,-0.481c2.077,0.169 2.681,0.52 4.249,0.004c0.392,-0.129 0.681,-0.372 0.929,-0.657c0.248,-0.285 0.455,-0.611 0.684,-0.906c0.229,-0.295 0.479,-0.559 0.813,-0.72Z" style="fill:#28527a;"/><circle cx="25.001" cy="9.997" r="3.001" style="fill:#fbeeac;"/><path d="M11.676,13.358c0.195,0.065 0.409,0.005 0.542,-0.152c0.087,-0.103 0.196,-0.217 0.323,-0.319c0.257,-0.206 0.582,-0.329 0.936,-0.329c0.829,0 1.501,0.672 1.501,1.5c-0,0.827 -0.672,1.499 -1.501,1.499c-0.375,0 -0.719,-0.138 -0.982,-0.367c-0.168,-0.145 -0.411,-0.163 -0.598,-0.043c-0.156,0.1 -0.341,0.158 -0.539,0.158c-0.552,-0 -1,-0.448 -1,-1c-0,-0.551 0.448,-0.999 1,-0.999c0.111,-0 0.218,0.018 0.318,0.052Z" style="fill:#28527a;"/><path d="M16.5,23.999l-0,0.001c-0,0.265 -0.105,0.519 -0.293,0.707c-0.187,0.187 -0.443,0.293 -0.708,0.293l-9.005,-0.009c-0.549,-0.001 -0.994,-0.446 -0.994,-0.995c0,0.132 -0,-0.002 -0,-0.002c0,0 -0,0 -0,0c0,-0.55 0.45,-0.994 1,-0.994c0,-0 9.015,0 9.022,0c0.255,0.006 0.503,0.11 0.685,0.293c0.188,0.187 0.293,0.441 0.293,0.706Z" style="fill:#f4d160;"/><path d="M6.494,25.491l22.006,0.006c0.276,-0 0.5,-0.224 0.5,-0.5l-0,-3.911c0,-0.173 -0.089,-0.333 -0.236,-0.425c0,0 -2.467,-1.533 -4.8,-2.028c-1.39,-0.294 -2.062,0.273 -2.626,1.001c-0.223,0.288 -0.424,0.606 -0.666,0.884c-0.19,0.218 -0.407,0.411 -0.708,0.51c-1.495,0.492 -2.072,0.133 -4.052,-0.028c-0.66,-0.053 -1.192,0.237 -1.587,0.621c-0.301,0.292 -0.515,0.636 -0.644,0.878l-0.71,0c0.013,-0.773 0.131,-2.703 0.819,-6.466c0.498,-0.078 0.936,-0.341 1.241,-0.716l2.867,2.866c0.195,0.195 0.512,0.195 0.707,-0c0.432,-0.433 0.63,-1.048 0.58,-1.746c-0.064,-0.911 -0.562,-1.979 -1.449,-2.866c-0.212,-0.212 -0.434,-0.401 -0.662,-0.568c1.078,0.001 1.92,-0 1.926,-0.003c0.252,-0.026 0.477,-0.251 0.477,-0.51c-0,-0.601 -0.286,-1.165 -0.797,-1.615c-0.667,-0.589 -1.739,-0.986 -2.953,-0.986c-0.975,0 -1.858,0.256 -2.513,0.662c-0.226,-0.633 -0.647,-1.29 -1.249,-1.865c-0.991,-0.947 -2.63,-1.645 -3.831,-1.686c-0.629,-0.022 -1.15,0.138 -1.479,0.453c-0.2,0.191 -0.207,0.507 -0.016,0.707c0.005,0.006 1.06,0.945 2.026,1.806c-0.341,-0.043 -0.697,-0.066 -1.064,-0.066c-1.485,-0 -2.798,0.379 -3.614,0.94c-0.66,0.453 -1.014,1.035 -1.014,1.64c0,0.276 0.224,0.5 0.5,0.5c0,0.003 0,0.007 0,0.01l4.926,-0c-0.234,0.17 -0.462,0.364 -0.68,0.581c-0.886,0.887 -1.384,1.955 -1.449,2.866c-0.049,0.698 0.148,1.313 0.581,1.746c0.195,0.195 0.512,0.195 0.707,-0l2.779,-2.779c0.166,0.154 0.366,0.27 0.588,0.337c-0.489,3.201 -2.443,6.211 -2.814,6.758l-1.616,0c-0.826,0 -1.495,0.67 -1.495,1.495l-0,0.002c0,0.825 0.668,1.494 1.494,1.495Zm10.421,-0.991l11.085,-0.003c-0,-0 -0,-3.128 -0,-3.128c-0.641,-0.373 -2.482,-1.384 -4.243,-1.757c-1.077,-0.229 -1.463,0.395 -1.886,0.984c-0.415,0.578 -0.86,1.14 -1.594,1.382c-1.641,0.54 -2.274,0.196 -4.446,0.019c-0.34,-0.028 -0.606,0.143 -0.809,0.341c-0.054,0.052 -0.103,0.106 -0.149,0.161c0,0 0.654,0.001 0.667,0.002c0.809,0.021 1.46,0.685 1.46,1.499c0,0.175 -0.03,0.343 -0.085,0.5Zm-1.392,-0.001c0.265,-0.012 0.477,-0.231 0.477,-0.499c0,-0.276 -0.224,-0.5 -0.5,-0.5c-0.011,0 -9.005,-0.001 -9.005,-0.001c-0.273,0 -0.495,0.222 -0.495,0.495c-0,0 -0,0.002 0,0.002c0,0.273 0.221,0.494 0.495,0.495l9.028,0.008Zm-3.551,-2c0.014,-0.838 0.138,-2.815 0.819,-6.563c-0.231,-0.084 -0.442,-0.21 -0.624,-0.368c-0.071,0.045 -0.146,0.085 -0.224,0.118c-0.385,2.85 -1.894,5.591 -2.645,6.813l2.674,0Zm-1.573,-9.347c-0.648,0.12 -1.361,0.514 -1.972,1.126c-0.694,0.694 -1.109,1.517 -1.159,2.229c-0.013,0.182 -0.002,0.356 0.038,0.513l2.56,-2.559c-0.006,-0.051 -0.008,-0.103 -0.008,-0.156c-0,-0.463 0.21,-0.878 0.541,-1.153Zm4.886,0.049c0.124,0.26 0.193,0.55 0.193,0.857c-0,0.092 -0.007,0.183 -0.019,0.273l2.69,2.689c0.041,-0.157 0.052,-0.331 0.039,-0.513c-0.051,-0.712 -0.465,-1.535 -1.159,-2.229c-0.542,-0.542 -1.162,-0.917 -1.744,-1.077Zm-1.813,-0.143c-0.234,0.002 -0.449,0.083 -0.619,0.219c-0.088,0.071 -0.165,0.149 -0.23,0.222c0.149,0.233 0.235,0.51 0.235,0.806c0,0.163 -0.026,0.32 -0.074,0.467l-0.002,0.007c0.177,0.158 0.44,0.278 0.695,0.278c0.552,0 1.001,-0.448 1.001,-0.999c-0,-0.552 -0.449,-1 -1.001,-1l-0.005,0Zm-2.114,0.748c0.276,-0 0.5,0.224 0.5,0.499c0,0.276 -0.224,0.5 -0.5,0.5c-0.276,-0 -0.5,-0.224 -0.5,-0.5c-0,-0.275 0.224,-0.499 0.5,-0.499Zm13.643,-7.31c-1.932,0 -3.501,1.569 -3.501,3.501c0,1.932 1.569,3.501 3.501,3.501c1.932,-0 3.501,-1.569 3.501,-3.501c-0,-1.932 -1.569,-3.501 -3.501,-3.501Zm-0,1c1.38,0 2.501,1.121 2.501,2.501c-0,1.38 -1.121,2.501 -2.501,2.501c-1.38,-0 -2.501,-1.121 -2.501,-2.501c0,-1.38 1.121,-2.501 2.501,-2.501Zm-6.664,4.504c-0.079,-0.135 -0.188,-0.26 -0.318,-0.375c-0.516,-0.455 -1.353,-0.736 -2.292,-0.736c-0.939,0 -1.776,0.281 -2.292,0.736c-0.13,0.115 -0.239,0.24 -0.318,0.374l5.22,0.001Zm-7.313,-0.011c-0.098,-0.115 -0.227,-0.223 -0.376,-0.325c-0.687,-0.472 -1.798,-0.764 -3.047,-0.764c-1.249,-0 -2.361,0.292 -3.048,0.764c-0.149,0.102 -0.278,0.21 -0.376,0.326l6.847,-0.001Zm1.068,-0.15c0.068,-0.188 0.166,-0.368 0.29,-0.539c-0.103,-0.618 -0.493,-1.304 -1.108,-1.891c-0.709,-0.678 -1.815,-1.206 -2.749,-1.365c-0.2,-0.034 -0.391,-0.051 -0.567,-0.046c0,0 3.975,3.474 4.134,3.841Z" id="Sunset"/></svg>